<svg width="236" height="112" fill="none" xmlns="http://www.w3.org/2000/svg"><g clip-path="url(#a)" fill="#1D1D1F"><path d="M153.637 7.84h-10.07v50.035h10.07V7.84zM87.248 36.603V7.839H97.46v28.59c0 6.764 4.07 12.754 12.382 12.754 8.313 0 12.002-5.61 12.002-12.754V7.839h10.07v28.764c0 12.928-8.123 22.41-22.072 22.41s-22.594-9.45-22.594-22.41zM76.022 7.84H65.968v50.035h10.054V7.84zM43.706 28.511l-14.33 14.872h-2.121L12.546 28.51v29.364H2.46V7.84h2.707L28.015 30.06 51.036 7.84h2.708v50.035H43.69l.016-29.364zM192.57 7.887v49.988h-9.088V17.322h-8.059V7.839l17.147.048zM228.006 40.08V7.87h-11.4l-19.159 33.995v6.416h21.534v9.483h9.025v-9.483h6.871V40.08h-6.871zm-20.267.206 11.749-21.4v21.4h-11.749z"/></g><path d="M11.776 81.546V80.49H5.92c.608-1.503 1.184-3.04 1.6-4.415l-1.056-.257c-.96 3.329-2.784 7.648-4.416 10.24l.768.672c.864-1.407 1.792-3.231 2.656-5.184h6.304zm17.088 14.688c0 .225-.032 3.936-.064 4.736-.064 1.536-.384 1.792-2.112 1.792H25.12c-1.44 0-1.888-.32-1.888-1.856V92.49h4.288v-9.855h-4.704c1.056-1.729 2.528-4.225 3.712-6.08l-.96-.513c-1.216 2.016-2.912 4.864-4 6.593h-8.096v9.855h3.616c0 .385 0 .897-.032 1.184-.224 5.344-1.792 7.328-6.4 10.112l.64.928c4.8-2.976 6.464-5.248 6.784-10.912 0-.32 0-.896.032-1.312h4.064v8.672c0 2.112.832 2.624 2.688 2.624h1.952c2.08 0 2.848-.384 2.944-2.496.032-.928.096-4.672.096-4.864l-.992-.192zM18.816 81.323c-.864-1.408-2.688-4.16-3.488-5.28l-.8.511c.736 1.153 2.56 3.904 3.392 5.313l.896-.544zm7.712 2.368v7.712h-12V83.69h12zM7.104 101.706v-8.704h4.416v-1.055H7.104v-5.025h3.616v-1.055H3.488v1.055h2.624v5.025H2.176v1.055h3.936v8.864c0 .384-.096.544-.64 1.152l.64.8 5.504-4.64-.384-1.055-4.128 3.583zm81.792-18.112c.512-1.28.992-2.751 1.376-3.935h5.632v-.897H85.248a83.11 83.11 0 0 0-1.44-3.391l-1.12.288c.448.96.896 2.08 1.312 3.103H72.064v.897h5.632c.32 1.087.704 2.751 1.024 3.935h-8.448v.928h27.392v-.928h-8.768zm.288-3.935a57.293 57.293 0 0 1-1.376 3.935h-8.064c-.288-1.183-.672-2.783-.992-3.935h10.432zM74.368 87.21v8.416h19.136V87.21H74.368zm18.048 3.809H75.424v-2.88h16.992v2.88zm-16.992.863h16.992v2.88H75.424v-2.88zm11.36 7.84c-1.216-1.055-2.56-2.271-3.776-3.263l-.672.671c1.248 1.089 2.528 2.24 3.744 3.328l.704-.736zm-15.712 3.584c1.472-1.536 3.104-3.968 4.096-5.855l-.96-.48c-.96 1.823-2.528 4.159-3.968 5.663l.832.672zm18.688-2.24c-.064 1.376-.48 1.728-2.496 1.728h-6.368c-1.696 0-2.176-.48-2.176-1.92v-3.807h-1.088v3.903c0 2.048.8 2.72 2.976 2.72h6.848c2.464 0 3.2-.544 3.328-2.4l.128-2.431-1.056-.256c0 .672-.064 1.791-.096 2.463zm2.976-3.392c1.28 1.472 3.232 4.064 4.384 5.568l.864-.608a297.617 297.617 0 0 0-4.352-5.567l-.896.608zm59.328-4.992h-6.144v-4.704h6.72v-.991h-4.576c.48-1.664 1.216-4.672 1.568-6.368h2.112v-.993h-5.44c-.448-1.407-1.056-3.264-1.376-4.127l-1.024.224c.288.8.864 2.528 1.28 3.903h-6.08v.992h2.048c.48 1.92 1.216 4.833 1.568 6.369h-4.608v.992h6.784v4.704h-6.272v.991h6.272v7.296c0 1.6-.224 1.888-2.272 1.888h-2.048l.224 1.056h2.016c2.528 0 3.104-.512 3.104-2.624v-7.616h6.144v-.992zm3.392-5.12v-6.975c3.424-.48 6.72-1.344 9.248-2.4l-.32-1.025c-2.72 1.12-6.336 2.016-10.016 2.464v8.928c0 8.192-.608 11.456-3.968 15.744l.928.576c3.488-4.512 4.128-7.871 4.128-16.16v-.096h5.504v15.904h1.024V88.618h3.84v-1.055h-10.368zm-6.848-6.944c-.352 1.825-1.056 4.897-1.504 6.369h-3.392c-.384-1.76-1.088-4.384-1.568-6.368h6.464zm-7.04 14.56c-.992 2.368-2.048 4.64-3.552 6.688l.768.544c1.536-2.112 2.656-4.415 3.712-6.847l-.928-.385zm10.272 4.769c-.8-1.12-2.56-3.68-3.296-4.672l-.736.575c.672.928 2.464 3.553 3.232 4.704l.8-.608zm69.408-7.169h10.144V91.69h-10.144v-7.712h11.264v-1.12h-11.264v-6.944h-1.184v6.945h-8.128c.672-1.6 1.312-3.296 1.856-5.216l-1.056-.288c-1.44 4.927-3.328 8.64-6.208 12.383l.96.576c1.568-2.047 2.848-4.095 3.936-6.335h8.64v7.712h-10.272v1.087h10.272v8.896h-13.248v1.088h26.976v-1.088h-12.544v-8.896z" fill="#1D1D1F"/><defs><clipPath id="a"><path fill="#fff" transform="translate(2.477 7.84)" d="M0 0h232.401v51.19H0z"/></clipPath></defs></svg>