<svg width="68" height="18" fill="none" xmlns="http://www.w3.org/2000/svg"><g clip-path="url(#a)" fill="#1D1D1F"><path d="M44.268 1.652h-2.901V16.07h2.901V1.652zM25.139 9.94V1.652h2.942V9.89c0 1.949 1.173 3.675 3.568 3.675s3.458-1.617 3.458-3.675V1.652h2.901V9.94c0 3.725-2.34 6.457-6.36 6.457-4.018 0-6.51-2.723-6.51-6.457zM21.905 1.652h-2.897V16.07h2.897V1.652zM12.593 7.609l-4.129 4.285h-.611L3.615 7.609v8.46H.708V1.653h.78l6.584 6.403 6.633-6.403h.78V16.07h-2.897l.005-8.461zM55.486 1.666V16.07h-2.618V4.385h-2.323V1.652l4.941.014zM65.696 10.94V1.66h-3.285l-5.52 9.795v1.849h6.205v2.732h2.6v-2.732h1.98v-2.363h-1.98zm-5.84.06 3.386-6.166V11h-3.386z"/></g><defs><clipPath id="a"><path fill="#fff" transform="translate(.713 1.652)" d="M0 0h66.963v14.75H0z"/></clipPath></defs></svg>